<svg width="140" height="17" viewBox="0 0 140 17" fill="none" xmlns="http://www.w3.org/2000/svg">
<path d="M3.10833 16.017C2.76702 16.4559 2.31601 16.6753 1.75529 16.6753C1.26771 16.6753 0.853267 16.5046 0.51196 16.1633C0.170653 15.822 0 15.4076 0 14.92C0 14.4568 0.121895 14.1033 0.365686 13.8595L9.25185 1.90157C9.6663 1.34085 10.2148 0.889837 10.8974 0.548531C11.5801 0.182844 12.3114 0 13.0916 0C13.8229 0 14.5177 0.158464 15.176 0.475392C15.8342 0.79232 16.3705 1.23114 16.785 1.79186L25.6712 13.6767C25.793 13.8717 25.9028 14.0667 26.0003 14.2618C26.1222 14.4568 26.1831 14.6762 26.1831 14.92C26.1831 15.4076 26.0125 15.822 25.6712 16.1633C25.3298 16.5046 24.9154 16.6753 24.4278 16.6753C23.8183 16.6753 23.3551 16.4437 23.0382 15.9805L14.5177 4.60764C14.3471 4.41261 14.1277 4.20539 13.8595 3.98598C13.6157 3.74219 13.3597 3.62029 13.0916 3.62029C12.8234 3.62029 12.5552 3.74219 12.287 3.98598C12.0433 4.20539 11.8482 4.41261 11.702 4.60764L3.10833 16.017Z" fill="#54C1FB"/>
<path d="M34.7185 10.4586C34.0358 10.4586 33.402 10.3367 32.8169 10.0929C32.2318 9.82476 31.7198 9.47127 31.281 9.03244C30.8422 8.59362 30.4887 8.08166 30.2205 7.49656C29.9767 6.91147 29.8548 6.27761 29.8548 5.595C29.8548 4.91238 29.9767 4.27853 30.2205 3.69343C30.4887 3.10833 30.8422 2.59637 31.281 2.15755C31.7198 1.71872 32.2318 1.37742 32.8169 1.13363C33.402 0.865458 34.0358 0.731373 34.7185 0.731373H56.9156C57.4032 0.731373 57.8176 0.902026 58.1589 1.24333C58.5002 1.58464 58.6709 1.99908 58.6709 2.48667C58.6709 2.97425 58.5002 3.38869 58.1589 3.73C57.8176 4.0713 57.4032 4.24196 56.9156 4.24196H34.6453C34.2796 4.24196 33.9505 4.37604 33.658 4.64421C33.3898 4.888 33.2557 5.20493 33.2557 5.595C33.2557 5.96068 33.3898 6.27761 33.658 6.54578C33.9505 6.81395 34.2796 6.94803 34.6453 6.94803H54.8677C55.5504 6.94803 56.1842 7.08212 56.7693 7.35029C57.3788 7.59408 57.9029 7.93539 58.3418 8.37421C58.7806 8.81303 59.1219 9.33718 59.3657 9.94666C59.6339 10.5318 59.7679 11.1656 59.7679 11.8482C59.7679 12.5308 59.6339 13.1647 59.3657 13.7498C59.1219 14.3349 58.7806 14.8469 58.3418 15.2857C57.9029 15.7245 57.3788 16.0658 56.7693 16.3096C56.1842 16.5534 55.5504 16.6753 54.8677 16.6753H32.7072C32.2196 16.6753 31.8052 16.5046 31.4638 16.1633C31.1225 15.822 30.9519 15.4076 30.9519 14.92C30.9519 14.4324 31.1225 14.018 31.4638 13.6767C31.8052 13.3353 32.2196 13.1647 32.7072 13.1647H55.014C55.3797 13.1647 55.6966 13.0428 55.9648 12.799C56.233 12.5308 56.3671 12.2139 56.3671 11.8482C56.3671 11.4582 56.233 11.129 55.9648 10.8609C55.6966 10.5927 55.3797 10.4586 55.014 10.4586H34.7185Z" fill="#54C1FB"/>
<path d="M66.9342 14.92C66.9342 15.4076 66.7636 15.822 66.4223 16.1633C66.081 16.5046 65.6665 16.6753 65.1789 16.6753C64.6914 16.6753 64.2769 16.5046 63.9356 16.1633C63.5943 15.822 63.4237 15.4076 63.4237 14.92V2.48667C63.4237 1.99908 63.5943 1.58464 63.9356 1.24333C64.2769 0.902026 64.6914 0.731373 65.1789 0.731373C65.6665 0.731373 66.081 0.902026 66.4223 1.24333C66.7636 1.58464 66.9342 1.99908 66.9342 2.48667V14.92Z" fill="#54C1FB"/>
<path d="M75.4653 10.4586C74.7827 10.4586 74.1488 10.3367 73.5637 10.0929C72.9786 9.82476 72.4667 9.47127 72.0278 9.03244C71.589 8.59362 71.2355 8.08166 70.9674 7.49656C70.7236 6.91147 70.6017 6.27761 70.6017 5.595C70.6017 4.91238 70.7236 4.27853 70.9674 3.69343C71.2355 3.10833 71.589 2.59637 72.0278 2.15755C72.4667 1.71872 72.9786 1.37742 73.5637 1.13363C74.1488 0.865458 74.7827 0.731373 75.4653 0.731373H97.6624C98.15 0.731373 98.5645 0.902026 98.9058 1.24333C99.2471 1.58464 99.4177 1.99908 99.4177 2.48667C99.4177 2.97425 99.2471 3.38869 98.9058 3.73C98.5645 4.0713 98.15 4.24196 97.6624 4.24196H75.3922C75.0265 4.24196 74.6974 4.37604 74.4048 4.64421C74.1366 4.888 74.0025 5.20493 74.0025 5.595C74.0025 5.96068 74.1366 6.27761 74.4048 6.54578C74.6974 6.81395 75.0265 6.94803 75.3922 6.94803H95.6146C96.2972 6.94803 96.9311 7.08212 97.5162 7.35029C98.1256 7.59408 98.6498 7.93539 99.0886 8.37421C99.5274 8.81303 99.8687 9.33718 100.113 9.94666C100.381 10.5318 100.515 11.1656 100.515 11.8482C100.515 12.5308 100.381 13.1647 100.113 13.7498C99.8687 14.3349 99.5274 14.8469 99.0886 15.2857C98.6498 15.7245 98.1256 16.0658 97.5162 16.3096C96.9311 16.5534 96.2972 16.6753 95.6146 16.6753H73.454C72.9664 16.6753 72.552 16.5046 72.2107 16.1633C71.8694 15.822 71.6987 15.4076 71.6987 14.92C71.6987 14.4324 71.8694 14.018 72.2107 13.6767C72.552 13.3353 72.9664 13.1647 73.454 13.1647H95.7609C96.1265 13.1647 96.4435 13.0428 96.7116 12.799C96.9798 12.5308 97.1139 12.2139 97.1139 11.8482C97.1139 11.4582 96.9798 11.129 96.7116 10.8609C96.4435 10.5927 96.1265 10.4586 95.7609 10.4586H75.4653Z" fill="#54C1FB"/>
<path d="M131.085 0.731373C131.573 0.731373 131.987 0.902026 132.328 1.24333C132.67 1.58464 132.84 1.99908 132.84 2.48667C132.84 2.97425 132.67 3.38869 132.328 3.73C131.987 4.0713 131.573 4.24196 131.085 4.24196H120.261V14.92C120.261 15.4076 120.09 15.822 119.749 16.1633C119.407 16.5046 118.993 16.6753 118.505 16.6753C118.018 16.6753 117.603 16.5046 117.262 16.1633C116.921 15.822 116.75 15.4076 116.75 14.92V4.24196H105.78C105.341 4.1932 104.963 4.01036 104.646 3.69343C104.329 3.35212 104.17 2.94987 104.17 2.48667C104.17 1.99908 104.341 1.58464 104.682 1.24333C105.024 0.902026 105.438 0.731373 105.926 0.731373H131.085Z" fill="#54C1FB"/>
<path d="M140 14.92C140 15.4076 139.829 15.822 139.488 16.1633C139.147 16.5046 138.732 16.6753 138.245 16.6753C137.757 16.6753 137.343 16.5046 137.001 16.1633C136.66 15.822 136.489 15.4076 136.489 14.92V2.48667C136.489 1.99908 136.66 1.58464 137.001 1.24333C137.343 0.902026 137.757 0.731373 138.245 0.731373C138.732 0.731373 139.147 0.902026 139.488 1.24333C139.829 1.58464 140 1.99908 140 2.48667V14.92Z" fill="#54C1FB"/>
<path d="M11.651 10.651C11.217 11.0849 11 11.6153 11 12.2422C11 12.869 11.217 13.3994 11.651 13.8334C12.0849 14.2674 12.6153 14.4844 13.2422 14.4844C13.869 14.4844 14.3994 14.2674 14.8334 13.8334C15.2674 13.3994 15.4844 12.869 15.4844 12.2422C15.4844 11.6153 15.2674 11.0849 14.8334 10.651C14.3994 10.217 13.869 10 13.2422 10C12.6153 10 12.0849 10.217 11.651 10.651Z" fill="#A5B4CB"/>
</svg>
