<svg width="40" height="40" viewBox="0 0 40 40" fill="none" xmlns="http://www.w3.org/2000/svg">
<path d="M8.00065 3.83337C8.00659 3.93809 8.04531 4.03829 8.11134 4.1198C8.17737 4.2013 8.26736 4.25997 8.36857 4.28751C8.46978 4.31505 8.57709 4.31006 8.67531 4.27326C8.77353 4.23645 8.85769 4.16968 8.91587 4.0824C8.97406 3.99513 9.00332 3.89177 8.99952 3.78694C8.99572 3.68212 8.95905 3.58115 8.8947 3.49831C8.83035 3.41548 8.74158 3.35498 8.64095 3.32538C8.54033 3.29578 8.43294 3.29857 8.33398 3.33337H6.66732C5.78326 3.33337 4.93542 3.68456 4.31029 4.30968C3.68517 4.9348 3.33398 5.78264 3.33398 6.6667V15C3.33398 17.6522 4.38755 20.1957 6.26292 22.0711C8.13828 23.9465 10.6818 25 13.334 25C15.9861 25 18.5297 23.9465 20.4051 22.0711C22.2804 20.1957 23.334 17.6522 23.334 15V6.6667C23.334 5.78264 22.9828 4.9348 22.3577 4.30968C21.7326 3.68456 20.8847 3.33337 20.0007 3.33337H18.334C18.3012 3.3662 18.2751 3.40517 18.2573 3.44807C18.2396 3.49096 18.2304 3.53694 18.2304 3.58337C18.2304 3.6298 18.2396 3.67577 18.2573 3.71867C18.2751 3.76156 18.3012 3.80054 18.334 3.83337C18.3668 3.8662 18.4058 3.89224 18.4487 3.91001C18.4916 3.92777 18.5376 3.93692 18.584 3.93692C18.6304 3.93692 18.6764 3.92777 18.7193 3.91001C18.7622 3.89224 18.8012 3.8662 18.834 3.83337" stroke="#5956E9" stroke-width="3.33333" stroke-linecap="round" stroke-linejoin="round"/>
<path d="M13.334 25V26.6667C13.334 29.3188 14.3876 31.8624 16.2629 33.7377C18.1383 35.6131 20.6818 36.6667 23.334 36.6667C25.9861 36.6667 28.5297 35.6131 30.4051 33.7377C32.2804 31.8624 33.334 29.3188 33.334 26.6667V20" stroke="#5956E9" stroke-width="3.33333" stroke-linecap="round" stroke-linejoin="round"/>
<path d="M33.3333 20C35.1743 20 36.6667 18.5076 36.6667 16.6666C36.6667 14.8257 35.1743 13.3333 33.3333 13.3333C31.4924 13.3333 30 14.8257 30 16.6666C30 18.5076 31.4924 20 33.3333 20Z" stroke="#5956E9" stroke-width="3.33333" stroke-linecap="round" stroke-linejoin="round"/>
</svg>
